<?xml version="1.0" standalone="no"?>
<!DOCTYPE svg PUBLIC "-//W3C//DTD SVG 20010904//EN"
 "http://www.w3.org/TR/2001/REC-SVG-20010904/DTD/svg10.dtd">
<svg version="1.0" xmlns="http://www.w3.org/2000/svg"
 width="512.000000pt" height="512.000000pt" viewBox="0 0 512.000000 512.000000"
 preserveAspectRatio="xMidYMid meet">
<metadata>
Created by potrace 1.14, written by Peter Selinger 2001-2017
</metadata>
<g transform="translate(0.000000,512.000000) scale(0.100000,-0.100000)"
fill="#000000" stroke="none">
<path d="M2488 4889 c-75 -12 -158 -55 -209 -108 -37 -39 -136 -199 -267 -432
-18 -33 -108 -188 -150 -259 -11 -19 -31 -54 -44 -76 -153 -271 -304 -530
-310 -532 -5 -2 -8 -8 -8 -13 0 -4 -20 -43 -45 -85 -25 -41 -45 -78 -45 -80 0
-2 -11 -21 -23 -42 -26 -41 -120 -201 -159 -272 -14 -25 -49 -85 -78 -135
-148 -253 -152 -261 -157 -325 -14 -156 114 -284 276 -275 57 4 172 13 226 20
108 12 274 34 310 41 11 2 61 11 110 19 50 9 110 20 135 26 25 5 59 12 75 14
17 2 31 4 33 6 3 2 46 12 147 34 27 5 242 62 283 74 17 5 32 7 32 4 0 -3 7 1
17 8 9 8 18 13 20 11 12 -9 592 178 621 201 6 5 12 7 12 4 0 -11 231 90 274
120 101 71 157 192 151 323 -2 41 -9 91 -16 110 -11 29 -100 190 -170 305 -11
17 -23 39 -28 51 -5 12 -26 46 -45 77 -20 31 -36 58 -36 61 0 2 -43 77 -95
167 -52 89 -95 163 -95 165 0 1 -27 48 -60 103 -33 56 -60 105 -60 110 0 5 -3
11 -7 13 -8 3 -44 66 -67 115 -6 13 -14 23 -18 23 -5 0 -8 6 -8 14 0 7 -7 19
-15 26 -9 7 -13 15 -10 18 3 3 -1 12 -9 21 -7 9 -25 36 -38 61 -82 149 -113
189 -177 229 -83 53 -183 75 -273 60z"/>
<path d="M3968 2255 c-2 -2 -19 -5 -38 -8 -19 -3 -91 -19 -160 -37 -69 -17
-136 -33 -150 -36 -14 -3 -32 -7 -40 -10 -8 -3 -26 -8 -40 -10 -14 -3 -43 -10
-65 -16 -22 -6 -47 -13 -55 -14 -27 -5 -85 -17 -95 -20 -27 -8 -175 -42 -205
-48 -14 -2 -59 -12 -100 -21 -41 -9 -91 -18 -110 -21 -19 -3 -43 -7 -52 -10
-10 -3 -28 -7 -40 -9 -13 -2 -36 -6 -52 -9 -16 -3 -50 -8 -75 -12 -25 -4 -55
-8 -66 -10 -11 -3 -40 -7 -65 -10 -45 -5 -71 -8 -145 -18 -218 -29 -785 -42
-1030 -23 -224 18 -337 17 -415 -4 -85 -22 -180 -68 -239 -114 -86 -69 -158
-162 -234 -305 -11 -19 -32 -55 -47 -80 -24 -39 -172 -295 -205 -355 -6 -11
-23 -39 -38 -62 -15 -24 -27 -45 -27 -47 0 -2 -27 -50 -60 -106 -33 -56 -60
-104 -60 -108 0 -3 -6 -13 -14 -21 -46 -54 -57 -196 -22 -283 41 -101 103
-161 202 -196 46 -16 184 -17 2329 -17 1254 1 2296 5 2315 9 91 21 175 91 217
181 24 51 28 72 28 145 0 77 -4 91 -35 150 -18 36 -39 72 -45 80 -7 8 -25 40
-41 70 -15 30 -33 62 -40 70 -6 8 -23 35 -36 60 -14 25 -67 117 -118 205 -51
88 -102 176 -112 195 -11 19 -24 40 -28 45 -8 10 -63 111 -84 152 -6 13 -14
23 -18 23 -5 0 -8 5 -8 11 0 9 -33 68 -99 179 -5 8 -49 84 -98 169 -48 84
-101 168 -118 186 -36 39 -97 78 -145 93 -33 11 -117 22 -122 17z"/>
</g>
</svg>
